<svg xmlns="http://www.w3.org/2000/svg" xmlns:xlink="http://www.w3.org/1999/xlink" width="36.935" height="41.11" viewBox="0 0 36.935 41.11">
  <defs>
    <linearGradient id="linear-gradient" x1="0.5" x2="0.5" y2="1" gradientUnits="objectBoundingBox">
      <stop offset="0" stop-color="#ff4495"/>
      <stop offset="1" stop-color="#ff6d6d"/>
    </linearGradient>
  </defs>
  <g id="price1" transform="translate(0 0)">
    <path id="Path_58" data-name="Path 58" d="M61.328,15.747H54.1V11.422a1.712,1.712,0,0,0,.365-.158,1.684,1.684,0,0,0,.611-2.3L50.345.848A1.682,1.682,0,0,0,47.43.837l-4.7,8.051a1.684,1.684,0,0,0,.93,2.536v2.738a.8.8,0,1,0,1.606,0V10.689a.8.8,0,0,0-.8-.8h-.323a.078.078,0,0,1-.078-.078.074.074,0,0,1,.013-.043c.011-.016.021-.032.03-.048l4.709-8.073a.076.076,0,0,1,.1-.028.072.072,0,0,1,.028.028l.006.01L53.69,9.77a.076.076,0,0,1-.028.1.077.077,0,0,1-.038.012H53.3a.8.8,0,0,0-.8.8V39.5H45.27V21.388a.8.8,0,1,0-1.606,0v2.669H36.437a1.608,1.608,0,0,0-1.606,1.606V30.32H27.6A1.608,1.608,0,0,0,26,31.926v8.382a.8.8,0,0,0,.8.8h35.33a.8.8,0,0,0,.8-.8V17.353A1.608,1.608,0,0,0,61.328,15.747ZM27.6,39.5V31.926h7.226V39.5Zm8.832,0V25.663h7.226V39.5Zm24.891,0H54.1V17.353h7.226Z" transform="translate(-25.999 0)" fill="url(#linear-gradient)"/>
    <path id="Path_59" data-name="Path 59" d="M246.8,212.972a.8.8,0,0,0,.8-.8h0a.8.8,0,1,0-.8.8Z" transform="translate(-228.333 -194.394)" fill="url(#linear-gradient)"/>
  </g>
</svg>
