<svg id="price3" xmlns="http://www.w3.org/2000/svg" xmlns:xlink="http://www.w3.org/1999/xlink" width="41.111" height="41.11" viewBox="0 0 41.111 41.11">
  <defs>
    <linearGradient id="linear-gradient" x1="0.5" x2="0.5" y2="1" gradientUnits="objectBoundingBox">
      <stop offset="0" stop-color="#ff4495"/>
      <stop offset="1" stop-color="#ff6d6d"/>
    </linearGradient>
  </defs>
  <g id="Group_3" data-name="Group 3" transform="translate(0 30.511)">
    <g id="Group_2" data-name="Group 2">
      <path id="Path_50" data-name="Path 50" d="M11.214,385.3a3.05,3.05,0,0,0-2.06-5.3h-6.1a3.05,3.05,0,0,0-2.06,5.3,3.049,3.049,0,0,0,2.06,5.3h6.1a3.05,3.05,0,0,0,2.06-5.3Zm-2.06,3.693h-6.1a1.445,1.445,0,0,1,0-2.891h6.1a1.445,1.445,0,0,1,0,2.891Zm0-4.5h-6.1a1.445,1.445,0,1,1,0-2.891h6.1a1.445,1.445,0,0,1,0,2.891Z" transform="translate(0 -379.998)" fill="url(#linear-gradient)"/>
    </g>
  </g>
  <g id="Group_5" data-name="Group 5" transform="translate(14.463 26.015)">
    <g id="Group_4" data-name="Group 4">
      <path id="Path_51" data-name="Path 51" d="M192.329,331.547a3.043,3.043,0,0,0-.991-2.248,3.049,3.049,0,0,0-2.06-5.3h-6.1a3.049,3.049,0,0,0-2.06,5.3,3.046,3.046,0,0,0,0,4.5,3.049,3.049,0,0,0,2.06,5.3h6.1a3.049,3.049,0,0,0,2.06-5.3A3.044,3.044,0,0,0,192.329,331.547Zm-3.051,5.942h-6.1a1.445,1.445,0,1,1,0-2.891h6.1a1.445,1.445,0,0,1,0,2.891Zm0-4.5h-6.1a1.445,1.445,0,0,1,0-2.891h6.1a1.445,1.445,0,0,1,0,2.891Zm0-4.5h-6.1a1.445,1.445,0,1,1,0-2.891h6.1a1.445,1.445,0,0,1,0,2.891Z" transform="translate(-180.124 -324)" fill="url(#linear-gradient)"/>
    </g>
  </g>
  <g id="Group_7" data-name="Group 7" transform="translate(28.906 21.518)">
    <g id="Group_6" data-name="Group 6">
      <path id="Path_52" data-name="Path 52" d="M372.208,275.548a3.043,3.043,0,0,0-.991-2.248,3.05,3.05,0,0,0-2.06-5.3h-6.1a3.049,3.049,0,0,0-2.06,5.3,3.046,3.046,0,0,0,0,4.5,3.046,3.046,0,0,0,0,4.5,3.049,3.049,0,0,0,2.06,5.3h6.1a3.049,3.049,0,0,0,2.06-5.3,3.046,3.046,0,0,0,0-4.5A3.043,3.043,0,0,0,372.208,275.548Zm-3.051,10.438h-6.1a1.445,1.445,0,1,1,0-2.891h6.1a1.445,1.445,0,1,1,0,2.891Zm0-4.5h-6.1a1.445,1.445,0,0,1,0-2.891h6.1a1.445,1.445,0,0,1,0,2.891Zm0-4.5h-6.1a1.445,1.445,0,0,1,0-2.891h6.1a1.445,1.445,0,0,1,0,2.891Zm0-4.5h-6.1a1.445,1.445,0,0,1,0-2.891h6.1a1.445,1.445,0,0,1,0,2.891Z" transform="translate(-360.004 -268)" fill="url(#linear-gradient)"/>
    </g>
  </g>
  <g id="Group_9" data-name="Group 9" transform="translate(0 22.768)">
    <g id="Group_8" data-name="Group 8">
      <path id="Path_53" data-name="Path 53" d="M1.371,283.794a.8.8,0,0,0-1.135,0,.8.8,0,0,0,1.135,1.136.8.8,0,0,0,0-1.136Z" transform="translate(0 -283.559)" fill="url(#linear-gradient)"/>
    </g>
  </g>
  <g id="Group_11" data-name="Group 11" transform="translate(0 0)">
    <g id="Group_10" data-name="Group 10">
      <path id="Path_54" data-name="Path 54" d="M40.876.241a.8.8,0,0,0-.732-.218L31.669,1.791a.8.8,0,0,0-.4,1.354l1.424,1.424c-4.7,4.705-9.126,9.131-12.086,12.09l-6.44-6.44a.8.8,0,0,0-1.136,0L2.281,20.964A.8.8,0,0,0,3.416,22.1L13.595,11.921l6.44,6.44a.8.8,0,0,0,1.135,0c3.056-3.053,8-8,13.222-13.226a.8.8,0,0,0,0-1.135l-.941-.941,5.821-1.215-1.215,5.82-.939-.939a.8.8,0,0,0-1.136,0L20.6,22.108l-.793-.791-5.649-5.649a.8.8,0,0,0-1.136,0L.236,28.459a.8.8,0,1,0,1.136,1.136L13.595,17.372l5.085,5.084,1.359,1.355a.8.8,0,0,0,1.135,0L36.551,8.43l1.421,1.421a.8.8,0,0,0,1.354-.4L41.094.973A.8.8,0,0,0,40.876.241Z" transform="translate(-0.001 -0.005)" fill="url(#linear-gradient)"/>
    </g>
  </g>
</svg>
